<svg xmlns="http://www.w3.org/2000/svg" width="16" height="16" viewBox="0 0 16 16"><path d="M8 1.3a6.6 6.6 0 0 0-5.7 9.9L1.3 14.7l3.6-1a6.6 6.6 0 1 0 3.1-12.4zm0 1.2a5.4 5.4 0 0 1 4.6 8.3l-.1.2.6 2.1-2.2-.6-.2.1A5.4 5.4 0 1 1 8 2.5zM5.6 4.7c-.1 0-.3 0-.5.2-.2.2-.6.6-.6 1.4 0 .8.6 1.6.7 1.8.1.2 1.2 1.9 3 2.6 1.5.6 1.8.5 2.1.4.3 0 1-.4 1.1-.8.1-.4.1-.7.1-.8l-.5-.3c-.3-.1-1-.5-1.1-.5-.2-.1-.3-.1-.4.1l-.5.6c-.1.1-.2.2-.4.1-.2-.1-.8-.3-1.5-1-.6-.5-.9-1.1-1-1.3-.1-.2 0-.3.1-.4l.3-.4.2-.3v-.3c0-.1-.4-1-.5-1.4-.2-.4-.3-.3-.4-.3h-.5z" fill="#585543"/></svg>
